<svg aria-hidden="true" style="position: absolute; width: 0; height: 0; overflow: hidden;" version="1.1"
    xmlns="http://www.w3.org/2000/svg" xmlns:xlink="http://www.w3.org/1999/xlink">
    <defs>
        <symbol id="quotes" viewBox="0 0 37 32">
            <path
                d="M14.194 20.645l0.915-2.515c0.763-2.098 1.237-4.291 1.408-6.517v-1.523c0-0.875-0.086-1.748-0.258-2.606l-0.343-1.544c-0.115-0.517-0.285-1.021-0.507-1.502-0.781-1.692-2.169-3.029-3.889-3.745l-0.422-0.176c-1.198-0.342-2.439-0.516-3.685-0.516h-0.528c-1.451 0-2.86 0.484-4.005 1.374-0.369 0.287-0.707 0.614-1.006 0.973l-0.195 0.234c-0.428 0.513-0.782 1.083-1.053 1.693-0.411 0.925-0.623 1.926-0.623 2.938v1.272c0 0.707 0.087 1.411 0.258 2.096l0.085 0.227c0.451 1.201 1.225 2.254 2.238 3.042 0.513 0.399 1.080 0.724 1.684 0.966l0.38 0.152 2.065 0.516 1.558 0.584c0.334 0.125 0.636 0.32 0.888 0.572 0.57 0.57 0.829 1.38 0.697 2.175l-0.047 0.282c-0.342 1.369-0.877 2.683-1.588 3.903l-0.12 0.205c-0.409 0.701-0.869 1.372-1.376 2.006l-2.335 2.919-1.548 1.548 3.613 2.323 2.323-2.581 1.806-2.581c1.203-1.718 2.277-3.522 3.215-5.398l0.398-0.795z">
            </path>
            <path
                d="M34.839 20.645l0.915-2.515c0.763-2.098 1.237-4.291 1.408-6.517v-1.523c0-0.875-0.086-1.748-0.258-2.606l-0.343-1.544c-0.115-0.517-0.285-1.021-0.507-1.502-0.781-1.692-2.169-3.029-3.889-3.745l-0.422-0.176c-1.198-0.342-2.439-0.516-3.685-0.516h-0.528c-1.451 0-2.86 0.484-4.005 1.374-0.369 0.287-0.707 0.614-1.006 0.973l-0.195 0.234c-0.428 0.513-0.782 1.083-1.053 1.693-0.411 0.925-0.623 1.926-0.623 2.938v1.272c0 0.707 0.087 1.411 0.258 2.096l0.085 0.227c0.45 1.201 1.225 2.254 2.238 3.042 0.513 0.399 1.080 0.724 1.684 0.966l0.38 0.152 2.065 0.516 1.558 0.584c0.334 0.125 0.636 0.32 0.888 0.572 0.57 0.57 0.829 1.38 0.697 2.175l-0.047 0.282c-0.342 1.369-0.877 2.683-1.588 3.903l-0.12 0.205c-0.409 0.701-0.869 1.372-1.376 2.006l-2.335 2.919-1.548 1.548 3.613 2.323 2.323-2.581 1.806-2.581c1.203-1.718 2.277-3.522 3.215-5.398l0.398-0.795z">
            </path>
        </symbol>
        <symbol id="forbes-logo" viewBox="0 0 121 32">
            <path
                d="M0 0.432v1.73h0.507c0.783 0 1.534 0.311 2.088 0.865l0.614 0.614c0.165 0.165 0.289 0.366 0.363 0.587 0.212 0.636 0.32 1.303 0.32 1.974v19.466c0 0.748-0.203 1.482-0.588 2.123-0.458 0.763-1.173 1.337-2.017 1.618l-1.287 0.429v1.297h15.568v-1.297l-1.662-0.475c-0.877-0.251-1.626-0.825-2.095-1.607-0.371-0.618-0.567-1.326-0.567-2.047v-8.411h2.614c1.076 0 2.090 0.507 2.736 1.368 0.18 0.24 0.328 0.503 0.439 0.782l0.697 1.742h1.297v-10.378h-1.297l-0.208 1.041c-0.146 0.731-0.505 1.402-1.032 1.929-0.59 0.59-1.39 0.921-2.225 0.921h-3.021v-11.676h4.809c0.253 0 0.506 0.021 0.756 0.063 1.443 0.241 2.776 0.926 3.81 1.961l0.139 0.139 0.099 0.165c0.797 1.329 1.487 2.72 2.063 4.159h1.73v-9.081h-24.649z">
            </path>
            <path
                d="M31.392 8.743c0.692-0.063 1.388-0.063 2.080 0l0.865 0.079c1.853 0.169 3.606 0.919 5.007 2.145 0.861 0.754 1.568 1.668 2.080 2.692l0.328 0.656c0.7 1.399 1.132 2.917 1.273 4.475l0.114 1.255c0.069 0.761 0.062 1.526-0.023 2.286l-0.011 0.099c-0.194 1.742-0.802 3.413-1.774 4.871l-0.186 0.279c-0.614 0.921-1.391 1.723-2.292 2.367-1.096 0.783-2.351 1.314-3.676 1.555l-1.276 0.232c-0.975 0.177-1.969 0.225-2.957 0.143l-0.706-0.059c-1.946-0.162-3.788-0.943-5.257-2.229-0.792-0.693-1.459-1.518-1.97-2.439l-0.231-0.417c-0.764-1.376-1.248-2.89-1.421-4.454l-0.020-0.181c-0.099-0.891-0.104-1.791-0.015-2.683l0.083-0.827c0.142-1.425 0.544-2.811 1.184-4.092l0.232-0.464c0.633-1.266 1.542-2.375 2.659-3.244 1.433-1.114 3.155-1.794 4.963-1.958l0.948-0.086zM34.294 11.657c-0.363-0.545-0.922-0.936-1.557-1.094v0c-0.479-0.12-0.986-0.101-1.454 0.055v0c-0.382 0.127-0.729 0.342-1.014 0.627l-0.186 0.185c-0.445 0.445-0.77 0.996-0.943 1.602l-0.601 2.104-0.074 0.441c-0.239 1.433-0.359 2.883-0.359 4.336v1.028c0 1.885 0.275 3.76 0.817 5.566l0.378 1.259c0.068 0.228 0.156 0.45 0.263 0.663l0.227 0.455c0.308 0.615 0.83 1.096 1.469 1.352v0c0.745 0.298 1.585 0.261 2.303-0.098v0c0.392-0.196 0.735-0.481 0.998-0.832l0.299-0.399c0.395-0.526 0.68-1.126 0.84-1.765l0.191-0.763c0.288-1.727 0.432-3.474 0.432-5.225v-1.922c0-0.712-0.050-1.422-0.151-2.127l-0.006-0.045c-0.182-1.277-0.532-2.525-1.041-3.711l-0.414-0.965c-0.078-0.183-0.173-0.358-0.284-0.524l-0.135-0.202z">
            </path>
            <path
                d="M52.324 8.649l-9.514 1.73v1.297h1.162c0.842 0 1.576 0.573 1.78 1.39 0.056 0.226 0.085 0.457 0.085 0.69v13.127c0 0.525-0.085 1.047-0.251 1.545l-0.072 0.217c-0.072 0.216-0.193 0.413-0.355 0.574-0.124 0.124-0.268 0.228-0.425 0.306l-0.092 0.046c-0.352 0.176-0.741 0.268-1.135 0.268h-0.698v1.297h12.973v-1.297h-0.33c-0.636 0-1.263-0.148-1.832-0.432l-0.143-0.072c-0.462-0.231-0.813-0.636-0.976-1.126-0.117-0.352-0.177-0.722-0.177-1.093v-11.547l0.595-0.397c0.465-0.31 0.979-0.537 1.521-0.673 0.598-0.15 1.224-0.15 1.822 0l0.262 0.066c0.37 0.092 0.729 0.225 1.070 0.396l1.216 0.608 2.595-6.054-0.428-0.428c-0.285-0.285-0.647-0.479-1.042-0.557l-0.157-0.031c-0.917-0.183-1.867-0.124-2.754 0.171l-0.297 0.099c-0.624 0.208-1.206 0.525-1.719 0.935-0.913 0.73-1.657 1.65-2.18 2.696l-0.504 1.007v-4.757z">
            </path>
            <path
                d="M59.676 2.595v-0.865l9.081-1.73v9.946l0.693-0.231c1.26-0.42 2.579-0.634 3.906-0.634h0.29c0.487 0 0.974 0.040 1.454 0.12l0.088 0.015c1.176 0.196 2.298 0.64 3.29 1.301v0c0.722 0.481 1.365 1.071 1.907 1.748l0.168 0.209c0.494 0.617 0.894 1.304 1.187 2.037v0c0.28 0.7 0.46 1.436 0.535 2.187l0.119 1.189c0.133 1.33 0.089 2.673-0.131 3.991l-0.15 0.899c-0.253 1.518-0.825 2.965-1.679 4.246l-0.102 0.153c-0.789 1.184-1.821 2.186-3.028 2.94v0c-1.076 0.673-2.271 1.135-3.519 1.362l-0.831 0.151c-1.35 0.245-2.728 0.297-4.092 0.154l-6.159-0.648v-24.936c0-0.661-0.18-1.31-0.52-1.877v0c-0.498-0.83-1.305-1.428-2.243-1.662l-0.264-0.066zM72.804 12.547c-0.938-0.563-2.046-0.773-3.124-0.593l-0.923 0.154 0.432 18.162h0.62c1.264 0 2.476-0.502 3.37-1.396v0c0.222-0.222 0.421-0.465 0.596-0.726l0.218-0.327c0.82-1.23 1.314-2.647 1.437-4.12l0.149-1.784c0.064-0.772 0.067-1.547 0.007-2.319l-0.209-2.718c-0.087-1.136-0.515-2.22-1.227-3.11l-0.12-0.151c-0.342-0.427-0.757-0.79-1.226-1.071v0z">
            </path>
            <path
                d="M90.811 19.459v1.096c0 0.992 0.16 1.978 0.474 2.92l0.107 0.323c0.189 0.564 0.451 1.101 0.781 1.596v0c0.245 0.367 0.525 0.708 0.836 1.020l0.36 0.36c0.311 0.312 0.654 0.592 1.021 0.836l0.231 0.154c0.342 0.228 0.712 0.409 1.101 0.538v0c0.471 0.157 0.964 0.237 1.46 0.237h0.903c0.626 0 1.25-0.077 1.857-0.229v0c0.542-0.136 1.067-0.33 1.567-0.58l0.978-0.489 0.865 0.432-0.372 0.465c-0.894 1.118-2.021 2.028-3.301 2.669v0c-1.003 0.502-2.085 0.829-3.197 0.968l-0.26 0.032c-1.008 0.126-2.027 0.117-3.032-0.027l-0.417-0.060c-0.728-0.104-1.441-0.295-2.124-0.568v0c-0.752-0.301-1.463-0.7-2.111-1.187l-0.148-0.111c-0.402-0.302-0.783-0.632-1.139-0.988l-0.767-0.767c-0.285-0.285-0.54-0.597-0.764-0.931v0c-0.351-0.526-0.618-1.103-0.791-1.711l-0.317-1.109c-0.19-0.666-0.329-1.346-0.415-2.034l-0.077-0.613c-0.15-1.203-0.14-2.422 0.032-3.622v0c0.116-0.81 0.304-1.609 0.563-2.385l0.1-0.3c0.25-0.749 0.581-1.469 0.987-2.147l0.143-0.238c0.361-0.601 0.794-1.155 1.289-1.651v0c0.651-0.652 1.404-1.194 2.228-1.606l0.485-0.243 1.201-0.481c0.639-0.255 1.303-0.441 1.981-0.554v0c1.042-0.174 2.106-0.174 3.148 0l0.089 0.015c0.619 0.103 1.232 0.275 1.815 0.509v0c0.841 0.336 1.633 0.807 2.328 1.387v0c1.016 0.847 1.824 1.916 2.361 3.124l0.089 0.2c0.543 1.223 0.824 2.547 0.824 3.885v1.862h-12.973zM90.811 17.73h6.054v-1.922c0-0.733-0.102-1.462-0.304-2.167l-0.368-1.286c-0.127-0.445-0.366-0.851-0.693-1.178l-0.34-0.339c-0.293-0.294-0.692-0.459-1.107-0.459v0c-0.415 0-0.814 0.165-1.107 0.459l-0.394 0.393c-0.293 0.294-0.521 0.647-0.667 1.035l-0.484 1.293c-0.391 1.042-0.592 2.147-0.592 3.26v0.911z">
            </path>
            <path
                d="M120.649 9.946v6.054h-1.297l-0.192-0.767c-0.159-0.637-0.426-1.242-0.79-1.788-0.209-0.314-0.449-0.606-0.716-0.873l-0.812-0.812c-0.341-0.341-0.747-0.609-1.194-0.788l-0.165-0.066c-0.839-0.336-1.782-0.296-2.589 0.108l-0.055 0.027c-0.267 0.134-0.514 0.312-0.726 0.524-0.353 0.353-0.607 0.799-0.728 1.284-0.16 0.638-0.086 1.313 0.208 1.901l0.072 0.144c0.222 0.443 0.544 0.829 0.94 1.126l0.506 0.38c0.413 0.309 0.863 0.563 1.342 0.754l1.441 0.577 1.257 0.472c1.431 0.537 2.659 1.51 3.506 2.783 0.278 0.416 0.425 0.905 0.425 1.404v3.456c0 0.636-0.148 1.263-0.432 1.832l-0.15 0.225c-0.473 0.71-1.053 1.344-1.72 1.877-0.765 0.612-1.632 1.083-2.561 1.393l-0.319 0.106c-0.579 0.193-1.175 0.334-1.78 0.42l-0.349 0.050c-1.174 0.168-2.375 0.186-3.555 0.055-1.39-0.154-2.759-0.514-4.044-1.065l-1.089-0.466v-6.486h1.297l0.472 1.417c0.259 0.779 0.655 1.505 1.168 2.146l0.373 0.465c0.383 0.48 0.867 0.87 1.416 1.145 0.589 0.295 1.239 0.448 1.897 0.448h0.899c0.974 0 1.884-0.487 2.424-1.297l0.212-0.424c0.411-0.822 0.411-1.79 0-2.612-0.14-0.281-0.325-0.537-0.547-0.759l-0.098-0.097c-0.286-0.286-0.618-0.525-0.979-0.706l-0.656-0.328c-0.35-0.175-0.713-0.326-1.085-0.45l-0.341-0.114c-1.125-0.375-2.195-0.898-3.182-1.556l-0.606-0.404c-0.334-0.222-0.644-0.477-0.928-0.761l-0.308-0.308c-0.649-0.649-1.091-1.476-1.271-2.377-0.104-0.517-0.118-1.048-0.044-1.57l0.055-0.379c0.174-1.218 0.671-2.366 1.439-3.327l0.556-0.695c1.661-1.661 3.914-2.595 6.264-2.595h0.821c2.173 0 4.323 0.441 6.32 1.297z">
            </path>
        </symbol>
        <symbol id="down-arrow" viewBox="0 0 27 32">
            <path
                d="M15.413 0.895v22.993l8.839-8.867 2.182 2.154-12.559 12.532-12.531-12.532 2.126-2.154 8.867 8.867v-22.993h3.077z">
            </path>
        </symbol>
        <symbol id="instagram" viewBox="0 0 32 32">
            <path
                d="M0 7.333c0-1.707 0.678-3.345 1.886-4.552l0.391-0.391c0.26-0.26 0.538-0.501 0.832-0.722l0.027-0.020c1.427-1.070 3.162-1.649 4.946-1.649h15.252c2.134 0 4.181 0.848 5.69 2.357l0.784 0.784c0.569 0.569 1.042 1.226 1.402 1.945 0.52 1.039 0.79 2.185 0.79 3.347v15.395c0 0.557-0.055 1.113-0.164 1.659l-0.053 0.266c-0.293 1.465-1.013 2.81-2.069 3.866-0.253 0.253-0.524 0.488-0.81 0.703l-0.039 0.029c-1.427 1.070-3.162 1.649-4.946 1.649h-17.095c-0.98 0-1.947-0.228-2.824-0.667s-1.64-1.075-2.228-1.859l-0.858-1.145c-0.164-0.219-0.309-0.453-0.431-0.698-0.317-0.635-0.482-1.334-0.482-2.043v-18.255zM3.333 8.667v15.141c0 0.569 0.092 1.134 0.272 1.674l0.042 0.125c0.232 0.697 0.624 1.331 1.144 1.85l0.114 0.114c0.284 0.285 0.613 0.521 0.973 0.701v0c0.52 0.26 1.093 0.395 1.674 0.395h15.053c0.486 0 0.971-0.041 1.451-0.121l0.59-0.099c0.457-0.077 0.901-0.221 1.316-0.428l0.158-0.079c0.79-0.393 1.434-1.028 1.84-1.811v0c0.185-0.358 0.318-0.741 0.393-1.137l0.147-0.773c0.112-0.588 0.168-1.186 0.168-1.785v-14.052c0-1.107-0.392-2.179-1.106-3.025v0c-0.152-0.18-0.317-0.348-0.493-0.503l-0.23-0.202c-0.969-0.85-2.215-1.318-3.504-1.318v0h-15.219c-0.944 0-1.867 0.279-2.652 0.803v0c-0.525 0.35-0.976 0.801-1.326 1.326v0c-0.524 0.785-0.803 1.708-0.803 2.652v0.552z">
            </path>
            <path
                d="M7.722 18.329l-0.118-0.705c-0.179-1.075-0.179-2.173 0-3.248l0.118-0.705c0.183-1.098 0.627-2.135 1.295-3.026 0.647-0.863 1.486-1.563 2.45-2.045l0.235-0.117c0.641-0.32 1.321-0.554 2.023-0.694l0.599-0.12c1.106-0.221 2.245-0.221 3.351 0l0.394 0.079c0.834 0.167 1.627 0.495 2.335 0.967 0.614 0.41 1.154 0.921 1.597 1.511l0.156 0.208c0.772 1.029 1.285 2.229 1.497 3.498l0.074 0.445c0.179 1.075 0.179 2.173 0 3.248l-0.074 0.445c-0.211 1.269-0.725 2.469-1.497 3.498l-0.156 0.208c-0.443 0.591-0.983 1.102-1.597 1.511-0.708 0.472-1.501 0.8-2.335 0.967l-0.394 0.079c-1.106 0.221-2.245 0.221-3.351 0l-0.599-0.12c-0.702-0.14-1.383-0.374-2.023-0.694l-0.235-0.117c-0.964-0.482-1.803-1.182-2.45-2.045-0.668-0.89-1.112-1.928-1.295-3.026zM19.507 12.174c-0.55-0.55-1.239-0.94-1.994-1.129l-0.248-0.062c-0.831-0.208-1.7-0.208-2.53 0l-0.818 0.205c-0.388 0.097-0.764 0.236-1.122 0.415l-0.423 0.211c-0.247 0.123-0.472 0.286-0.667 0.48v0c-0.246 0.246-0.439 0.539-0.568 0.861l-0.244 0.611c-0.568 1.419-0.495 3.015 0.2 4.376l0.074 0.146c0.35 0.686 0.865 1.274 1.499 1.711v0l0.377 0.238c0.452 0.285 0.941 0.505 1.453 0.655l0.197 0.058c0.855 0.251 1.761 0.269 2.625 0.053l0.193-0.048c0.755-0.189 1.444-0.579 1.994-1.129v0c0.326-0.326 0.598-0.703 0.804-1.116l0.189-0.379c0.11-0.221 0.205-0.449 0.283-0.683v0c0.357-1.070 0.357-2.227 0-3.297v0c-0.078-0.234-0.173-0.462-0.283-0.683l-0.189-0.379c-0.206-0.413-0.478-0.789-0.804-1.116v0z">
            </path>
            <path d="M26.667 7.333c0 1.105-0.895 2-2 2s-2-0.895-2-2c0-1.105 0.895-2 2-2s2 0.895 2 2z"></path>
        </symbol>
        <symbol id="tiktok" viewBox="0 0 32 32">
            <path
                d="M21.333 0h-5.333v19.637c0 2.459 0.057 5.45-2.119 6.593-0.505 0.265-1.124 0.437-1.881 0.437-3.333 0-5.296-1.899-5.333-4.667 0-4.667 6-4.667 6-4.667l-0-5.333c0 0-11.333-1.333-11.333 10 0 5.71 4.959 10.145 10.667 10 5.166-0.131 10-5.333 10-8.667v-12.667c1.707 1.707 4.023 2.667 6.438 2.667h0.895v-5.333c-3.274-0.409-6.043-2.617-7.17-5.718l-0.83-2.282z">
            </path>
        </symbol>
        <symbol id="twitter" viewBox="0 0 32 32">
            <path
                d="M0.873 12.041l2.466 0.493c0.143 0.029 0.222-0.161 0.1-0.242l-0.774-0.516c-0.439-0.293-0.816-0.67-1.109-1.109l-0.218-0.327c-0.438-0.657-0.672-1.429-0.672-2.219v-0.911c0-0.79 0.234-1.562 0.672-2.219l0.579-0.869c0.044-0.066 0.135-0.079 0.196-0.028l3.648 3.040c0.158 0.132 0.326 0.251 0.503 0.357l2.692 1.615c0.25 0.15 0.516 0.272 0.793 0.365l2.968 0.989c0.408 0.136 0.835 0.205 1.265 0.205h1.322c0.016 0 0.029-0.013 0.029-0.029v-1.257c0-0.917 0.113-1.831 0.335-2.721 0.217-0.868 0.666-1.661 1.299-2.294l0.113-0.113c0.605-0.605 1.343-1.061 2.155-1.332l0.177-0.059c0.389-0.13 0.797-0.196 1.208-0.196h2.072c0.86 0 1.709 0.2 2.478 0.585 0.108 0.054 0.207 0.125 0.292 0.211l1.036 1.036c0.103 0.103 0.256 0.139 0.394 0.093l3.774-1.258-0.233 0.698c-0.281 0.844-0.836 1.57-1.576 2.063l-0.297 0.198c-0.121 0.081-0.043 0.27 0.1 0.242l2.672-0.534-0.376 0.753c-0.192 0.385-0.445 0.736-0.749 1.040l-0.571 0.571c-0.629 0.629-1.030 1.45-1.141 2.332l-0.496 3.971-0.56 2.241c-0.071 0.283-0.172 0.558-0.303 0.819l-0.976 1.951c-0.107 0.215-0.234 0.419-0.378 0.611l-1.613 2.151c-0.113 0.151-0.238 0.295-0.372 0.429l-1.799 1.799-2 1.526-2 1.141-3.333 1.333-2.189 0.547c-0.317 0.079-0.643 0.119-0.97 0.119h-1.843c-0.22 0-0.44-0.018-0.658-0.054l-3.247-0.541c-0.284-0.047-0.561-0.125-0.828-0.232l-2.545-1.018c-0.257-0.103-0.503-0.232-0.733-0.386l-1.287-0.858c-0.11-0.073-0.058-0.244 0.074-0.244h1.734c0.327 0 0.653-0.040 0.97-0.119l2.189-0.547 1.492-0.497c0.337-0.112 0.658-0.269 0.954-0.467l1.188-0.792c0.11-0.073 0.058-0.244-0.074-0.244h-0.244c-0.43 0-0.857-0.069-1.265-0.205l-0.488-0.163c-0.589-0.196-1.124-0.527-1.564-0.966l-0.665-0.665c-0.439-0.439-0.77-0.974-0.966-1.564l-0.31-0.929c-0.029-0.086 0.035-0.175 0.127-0.175h2.327c0.151 0 0.186-0.212 0.042-0.26l-0.712-0.237c-0.337-0.112-0.658-0.269-0.954-0.467l-0.889-0.592c-0.439-0.293-0.816-0.67-1.109-1.109l-0.505-0.758c-0.254-0.381-0.441-0.804-0.552-1.249l-0.448-1.79c-0.024-0.095 0.060-0.182 0.155-0.163z">
            </path>
        </symbol>
        <symbol id="arrow" viewBox="0 0 40 32">
            <path
                d="M21.807 32l-2.625-2.591 10.807-10.807h-27.989v-3.75h27.989l-10.807-10.773 2.625-2.625 15.273 15.273-15.273 15.273z">
            </path>
        </symbol>
        <symbol id="face-house" viewBox="0 0 39 32">
            <path
                d="M13.708 0.13c0.13-0.043 0.346-0.13 0.649-0.13 0.432 0.043 0.707 0.271 0.865 0.389l4.195 3.2 4.040-3.020c0.16-0.12 0.285-0.224 0.544-0.397l0.173-0.086c0.285-0.103 0.621-0.096 0.908 0 0.136 0.045 0.318 0.174 0.432 0.259l12.497 9.341c0.016 0.012 0.033 0.024 0.049 0.036 0.074 0.055 0.147 0.11 0.254 0.188l0.173 0.165c0.151 0.151 0.235 0.317 0.303 0.519 0.044 0.131 0.044 0.305 0.043 0.447 0 0.010 0 0.019 0 0.028v14.53c-0.010 0.288 0 0.584 0.010 0.889 0.035 1.067 0.072 2.234-0.702 3.479l-0.057 0.089c-0.277 0.428-0.623 0.807-1.024 1.122v0c-0.692 0.519-1.341 0.649-2.086 0.732-0.206 0.003-0.34 0.003-0.508 0.003l-30.102 0.043c-0.285 0-0.57-0.023-0.851-0.068l-0.239-0.038c-0.278-0.045-0.55-0.123-0.81-0.234-0.726-0.311-1.323-0.864-1.689-1.564l-0.192-0.368c-0.157-0.3-0.28-0.617-0.368-0.945l-0.042-0.156-0.024-0.163c-0.070-0.467-0.105-0.939-0.105-1.411v-15.827c0-0.161 0.022-0.321 0.067-0.475l0.021-0.072c0.057-0.198 0.156-0.381 0.292-0.536 0.064-0.074 0.136-0.14 0.215-0.199l12.679-9.477c0.145-0.109 0.177-0.164 0.393-0.294zM14.227 2.984l-11.589 8.692v15.945c0 0.236 0.044 0.47 0.13 0.691l0.029 0.074c0.095 0.244 0.248 0.461 0.447 0.631v0l0.1 0.075c0.162 0.121 0.348 0.205 0.547 0.244v0c0.087 0.017 0.176 0.026 0.265 0.026h6.612c-0.173-0.518-0.297-1.051-0.37-1.591l-0.019-0.138v-4.238l-0.476-0.605-0.259-0.389-0.086-0.173-0.010-0.024c-0.078-0.182-0.102-0.383-0.070-0.578l0.010-0.061c0.044-0.265 0.204-0.497 0.436-0.632v0c0.101-0.059 0.212-0.097 0.328-0.114l0.128-0.018v-9.776c0-0.141 0.023-0.281 0.067-0.415v0c0.041-0.124 0.101-0.241 0.177-0.348l0.005-0.007c0.064-0.090 0.139-0.172 0.223-0.244l0.176-0.151 6.227-4.627-3.027-2.249zM19.459 6.789l-6.4 4.8v11.286l0.188 0.063c0.22 0.073 0.447 0.125 0.677 0.154v0 0c0.23 0.029 0.462 0.029 0.692 0v0 0c0.457-0.057 0.9-0.198 1.307-0.415l0.033-0.018 0.069-0.042c0.383-0.23 0.725-0.523 1.012-0.866v0l0.389-0.562 0.126-0.151c0.060-0.072 0.132-0.132 0.213-0.178v0c0.118-0.067 0.252-0.103 0.388-0.103h0.010c0.063 0 0.125 0.008 0.186 0.024v0c0.048 0.013 0.095 0.030 0.139 0.052l0.106 0.053c0.086 0.057 0.161 0.129 0.223 0.211l0.036 0.048c0.057 0.086 0.103 0.179 0.136 0.278l0.037 0.112c0.029 0.143 0.029 0.29 0 0.432v0 0c-0.057 0.172-0.136 0.337-0.235 0.489l-0.132 0.203c-0.13 0.201-0.278 0.39-0.441 0.565l-0.36 0.386-0.014 0.013c-0.307 0.279-0.635 0.535-0.98 0.765v0 0c-0.345 0.201-0.711 0.363-1.092 0.484l-0.249 0.079-0.216 0.043c-0.402 0.086-0.813 0.119-1.224 0.099l-0.246-0.012-0.078-0.008c-0.236-0.024-0.47-0.064-0.701-0.122v0 2.811l0.020 0.161c0.015 0.123 0.045 0.244 0.089 0.36v0c0.043 0.114 0.098 0.222 0.165 0.323l0.072 0.108 0.029 0.036c0.096 0.119 0.208 0.225 0.333 0.312l0.068 0.048c0.116 0.081 0.246 0.14 0.383 0.175v0c0.092 0.023 0.186 0.035 0.281 0.035l9.995-0.009c0.269-0.022 0.525-0.126 0.734-0.297v0c0.103-0.084 0.192-0.183 0.265-0.293l0.053-0.079c0.177-0.265 0.286-0.569 0.32-0.886l0.036-0.339v-15.8l-6.443-4.827zM28.497 10.984v16.605l-0.001 0.018c-0.028 0.589-0.159 1.169-0.388 1.712v0h6.691c0.15 0 0.299-0.031 0.437-0.090v0c0.062-0.027 0.122-0.059 0.178-0.097l0.045-0.030 0.173-0.13c0.227-0.198 0.399-0.452 0.499-0.736l0.004-0.011c0.068-0.192 0.103-0.395 0.103-0.599v-15.995l-11.589-8.692-3.027 2.249 6.314 4.713c0.329 0.247 0.534 0.626 0.559 1.037l0.003 0.045z">
            </path>
            <path
                d="M19.661 13.646c0.096-0.016 0.194-0.019 0.29-0.008v0c0.16 0.018 0.314 0.072 0.45 0.159l0.076 0.048c0.128 0.081 0.239 0.185 0.33 0.306v0c0.081 0.108 0.144 0.228 0.187 0.356l0.025 0.075c0.027 0.081 0.047 0.164 0.061 0.248v0c0.015 0.089 0.022 0.178 0.022 0.268v0.073l-0.025 0.188c-0.040 0.304-0.179 0.587-0.397 0.804v0c-0.065 0.065-0.136 0.123-0.213 0.174l-0.015 0.010c-0.086 0.057-0.179 0.103-0.278 0.136l-0.037 0.012c-0.050 0.017-0.101 0.029-0.153 0.038v0c-0.12 0.020-0.243 0.018-0.362-0.006l-0.036-0.007c-0.115-0.029-0.226-0.070-0.332-0.123l-0.014-0.007-0.13-0.087c-0.115-0.086-0.215-0.189-0.299-0.306l-0.034-0.048c-0.037-0.052-0.071-0.108-0.099-0.165v0 0c-0.058-0.144-0.099-0.293-0.125-0.446l-0.005-0.030c-0.029-0.143-0.029-0.29 0-0.432v0l0.002-0.019c0.027-0.242 0.116-0.474 0.257-0.672v0 0c0.086-0.115 0.186-0.218 0.299-0.308l0.047-0.038 0.063-0.038c0.101-0.061 0.211-0.106 0.326-0.135v0l0.115-0.019z">
            </path>
            <path
                d="M8.591 13.633c0.096-0.016 0.194-0.019 0.29-0.008 0.16 0.018 0.314 0.072 0.45 0.159l0.076 0.048c0.128 0.081 0.239 0.185 0.33 0.306 0.081 0.108 0.144 0.228 0.187 0.356l0.025 0.075c0.027 0.081 0.047 0.164 0.062 0.248 0.015 0.089 0.022 0.178 0.022 0.268v0.073l-0.025 0.188c-0.040 0.304-0.179 0.587-0.397 0.804-0.065 0.065-0.136 0.123-0.213 0.174l-0.015 0.010c-0.086 0.057-0.179 0.103-0.278 0.136l-0.037 0.012c-0.050 0.017-0.101 0.029-0.153 0.038-0.12 0.020-0.243 0.018-0.362-0.006l-0.036-0.007c-0.115-0.029-0.226-0.070-0.332-0.123l-0.014-0.007-0.13-0.087c-0.115-0.086-0.215-0.189-0.299-0.306l-0.034-0.048c-0.037-0.052-0.071-0.108-0.099-0.165-0.058-0.144-0.099-0.293-0.125-0.446l-0.005-0.030c-0.029-0.143-0.029-0.29 0-0.432l0.002-0.019c0.027-0.242 0.116-0.474 0.257-0.672 0.086-0.115 0.186-0.218 0.299-0.308l0.047-0.038 0.063-0.038c0.101-0.061 0.211-0.106 0.326-0.135l0.115-0.019z">
            </path>
        </symbol>
        <symbol id="face" viewBox="0 0 35 32">
            <path fill="none" stroke="#fff" style="stroke: var(--color1, #fff)" stroke-linejoin="round"
                stroke-linecap="round" stroke-miterlimit="4" stroke-width="17.4545"
                d="M25.425 26.057h-15.785c-1.174 0-2.125-0.955-2.125-2.133v-11.352l10.017-6.629 10.017 6.629v11.352c0 1.178-0.951 2.133-2.125 2.133z">
            </path>
            <path fill="#7837f3" style="fill: var(--color2, #7837f3)"
                d="M17.097 22.289c-1.437 0-2.776-0.714-3.583-1.909-0.212-0.313-0.13-0.74 0.182-0.952s0.737-0.131 0.949 0.183c0.552 0.819 1.469 1.307 2.452 1.307s1.9-0.489 2.452-1.307c0.212-0.313 0.636-0.396 0.949-0.183s0.394 0.639 0.182 0.952c-0.807 1.195-2.146 1.909-3.583 1.909z">
            </path>
            <path fill="#7837f3" style="fill: var(--color2, #7837f3)"
                d="M21.4 16.401c0.549 0 0.994-0.447 0.994-0.998s-0.445-0.999-0.994-0.999-0.994 0.447-0.994 0.999c0 0.551 0.445 0.998 0.994 0.998z">
            </path>
            <path fill="#7837f3" style="fill: var(--color2, #7837f3)"
                d="M13.802 15.403c0 0.551-0.445 0.998-0.994 0.998s-0.995-0.447-0.995-0.998c0-0.551 0.445-0.999 0.995-0.999s0.994 0.447 0.994 0.999z">
            </path>
            <path fill="#7837f3" style="fill: var(--color2, #7837f3)"
                d="M21.323 14.884c-0.286 0-0.517 0.232-0.517 0.519s0.232 0.519 0.517 0.519h0.153c0.286 0 0.517-0.232 0.517-0.519s-0.232-0.519-0.517-0.519h-0.153z">
            </path>
            <path fill="#7837f3" style="fill: var(--color2, #7837f3)"
                d="M12.731 14.884c-0.286 0-0.517 0.232-0.517 0.519s0.232 0.519 0.517 0.519h0.153c0.286 0 0.517-0.232 0.517-0.519s-0.232-0.519-0.517-0.519h-0.153z">
            </path>
        </symbol>
    </defs>
</svg>