<svg aria-hidden="true" style="position: absolute; width: 0; height: 0; overflow: hidden;" version="1.1"
    xmlns="http://www.w3.org/2000/svg" xmlns:xlink="http://www.w3.org/1999/xlink">
    <defs>
        <symbol id="icon-down-arrow" viewBox="0 0 27 32">
            <path
                d="M15.413 0.895v22.993l8.839-8.867 2.182 2.154-12.559 12.532-12.531-12.532 2.126-2.154 8.867 8.867v-22.993h3.077z">
            </path>
        </symbol>
        <symbol id="icon-instagram" viewBox="0 0 32 32">
            <path stroke-linejoin="miter" stroke-linecap="butt" stroke-miterlimit="4" stroke-width="3.0667"
                d="M18.33 9.54l-0.291-0.109c-1.315-0.493-2.763-0.493-4.078 0l-0.999 0.375c-1.475 0.553-2.687 1.644-3.392 3.053-0.989 1.977-0.989 4.304 0 6.282l0.288 0.576c0.52 1.039 1.413 1.843 2.501 2.251l0.324 0.122c2.115 0.793 4.465 0.67 6.485-0.34 1.38-0.69 2.406-1.927 2.83-3.41l0.164-0.573c0.331-1.157 0.351-2.38 0.059-3.547l-0.11-0.44c-0.487-1.948-1.901-3.533-3.781-4.238z">
            </path>
            <path stroke-linejoin="miter" stroke-linecap="butt" stroke-miterlimit="4" stroke-width="3.0667"
                d="M23.29 1.333h-14.58c-1.337 0-2.649 0.363-3.795 1.051-1.038 0.623-1.907 1.492-2.53 2.53-0.688 1.146-1.051 2.458-1.051 3.795v14.58c0 1.337 0.363 2.649 1.051 3.795 0.623 1.038 1.492 1.907 2.53 2.53 1.146 0.688 2.458 1.051 3.795 1.051h14.21c1.567 0 3.092-0.508 4.345-1.448 0.488-0.366 0.928-0.793 1.31-1.269l0.134-0.168c1.267-1.584 1.958-3.553 1.958-5.582v-13.489c0-1.337-0.363-2.649-1.051-3.795-0.623-1.038-1.492-1.907-2.53-2.53-1.146-0.688-2.458-1.051-3.795-1.051z">
            </path>
            <path d="M26.667 7.333c0 1.105-0.895 2-2 2s-2-0.895-2-2c0-1.105 0.895-2 2-2s2 0.895 2 2z"></path>
        </symbol>
        <symbol id="icon-tiktok" viewBox="0 0 32 32">
            <path
                d="M21.333 0h-5.333v19.637c0 2.459 0.057 5.45-2.119 6.593-0.505 0.265-1.124 0.437-1.881 0.437-3.333 0-5.296-1.899-5.333-4.667 0-4.667 6-4.667 6-4.667l-0-5.333c0 0-11.333-1.333-11.333 10 0 5.71 4.959 10.145 10.667 10 5.166-0.131 10-5.333 10-8.667v-12.667c1.707 1.707 4.023 2.667 6.438 2.667h0.895v-5.333c-3.274-0.409-6.043-2.617-7.17-5.718l-0.83-2.282z">
            </path>
        </symbol>
        <symbol id="icon-twitter" viewBox="0 0 32 32">
            <path
                d="M0.873 12.041l2.466 0.493c0.143 0.029 0.222-0.161 0.1-0.242l-0.774-0.516c-0.439-0.293-0.816-0.67-1.109-1.109l-0.218-0.327c-0.438-0.657-0.672-1.429-0.672-2.219v-0.911c0-0.79 0.234-1.562 0.672-2.219l0.579-0.869c0.044-0.066 0.135-0.079 0.196-0.028l3.648 3.040c0.158 0.132 0.326 0.251 0.503 0.357l2.692 1.615c0.25 0.15 0.516 0.272 0.793 0.365l2.968 0.989c0.408 0.136 0.835 0.205 1.265 0.205h1.322c0.016 0 0.029-0.013 0.029-0.029v-1.257c0-0.917 0.113-1.831 0.335-2.721 0.217-0.868 0.666-1.661 1.299-2.294l0.113-0.113c0.605-0.605 1.343-1.061 2.155-1.332l0.177-0.059c0.389-0.13 0.797-0.196 1.208-0.196h2.072c0.86 0 1.709 0.2 2.478 0.585 0.108 0.054 0.207 0.125 0.292 0.211l1.036 1.036c0.103 0.103 0.256 0.139 0.394 0.093l3.774-1.258-0.233 0.698c-0.281 0.844-0.836 1.57-1.576 2.063l-0.297 0.198c-0.121 0.081-0.043 0.27 0.1 0.242l2.672-0.534-0.376 0.753c-0.192 0.385-0.445 0.736-0.749 1.040l-0.571 0.571c-0.629 0.629-1.030 1.45-1.141 2.332l-0.496 3.971-0.56 2.241c-0.071 0.283-0.172 0.558-0.303 0.819l-0.976 1.951c-0.107 0.215-0.234 0.419-0.378 0.611l-1.613 2.151c-0.113 0.151-0.238 0.295-0.372 0.429l-1.799 1.799-2 1.526-2 1.141-3.333 1.333-2.189 0.547c-0.317 0.079-0.643 0.119-0.97 0.119h-1.843c-0.22 0-0.44-0.018-0.658-0.054l-3.247-0.541c-0.284-0.047-0.561-0.125-0.828-0.232l-2.545-1.018c-0.257-0.103-0.503-0.232-0.733-0.386l-1.287-0.858c-0.11-0.073-0.058-0.244 0.074-0.244h1.734c0.327 0 0.653-0.040 0.97-0.119l2.189-0.547 1.492-0.497c0.337-0.112 0.658-0.269 0.954-0.467l1.188-0.792c0.11-0.073 0.058-0.244-0.074-0.244h-0.244c-0.43 0-0.857-0.069-1.265-0.205l-0.488-0.163c-0.589-0.196-1.124-0.527-1.564-0.966l-0.665-0.665c-0.439-0.439-0.77-0.974-0.966-1.564l-0.31-0.929c-0.029-0.086 0.035-0.175 0.127-0.175h2.327c0.151 0 0.186-0.212 0.042-0.26l-0.712-0.237c-0.337-0.112-0.658-0.269-0.954-0.467l-0.889-0.592c-0.439-0.293-0.816-0.67-1.109-1.109l-0.505-0.758c-0.254-0.381-0.441-0.804-0.552-1.249l-0.448-1.79c-0.024-0.095 0.060-0.182 0.155-0.163z">
            </path>
        </symbol>
        <symbol id="icon-arrow" viewBox="0 0 40 32">
            <path
                d="M21.807 32l-2.625-2.591 10.807-10.807h-27.989v-3.75h27.989l-10.807-10.773 2.625-2.625 15.273 15.273-15.273 15.273z">
            </path>
        </symbol>
        <symbol id="icon-face-house" viewBox="0 0 31 32">
            <path stroke-linejoin="round" stroke-linecap="round" stroke-miterlimit="4" stroke-width="1.7811"
                d="M25.973 26.057h-13.959c-1.038 0-1.879-0.955-1.879-2.133v-11.352l8.859-6.629 8.859 6.629v11.352c0 1.178-0.841 2.133-1.879 2.133z">
            </path>
            <path stroke-linejoin="round" stroke-linecap="round" stroke-miterlimit="4" stroke-width="1.7811"
                d="M18.859 26.057h-13.96c-1.038 0-1.879-0.955-1.879-2.133v-11.352l8.859-6.629 8.859 6.629v11.352c0 1.178-0.841 2.133-1.879 2.133z">
            </path>
            <path
                d="M11.876 22.277c-1.271 0-2.455-0.714-3.169-1.909-0.187-0.314-0.115-0.74 0.161-0.952s0.652-0.131 0.839 0.183c0.489 0.819 1.299 1.307 2.169 1.307s1.68-0.489 2.169-1.307c0.187-0.313 0.563-0.395 0.839-0.183s0.348 0.639 0.161 0.952c-0.714 1.195-1.898 1.909-3.169 1.909z">
            </path>
            <path
                d="M15.682 16.401c0.486 0 0.879-0.447 0.879-0.998s-0.394-0.999-0.88-0.999c-0.486 0-0.879 0.447-0.879 0.999s0.394 0.998 0.879 0.998z">
            </path>
            <path
                d="M8.963 15.403c0 0.551-0.394 0.998-0.88 0.998s-0.879-0.447-0.879-0.998c0-0.551 0.394-0.999 0.879-0.999s0.88 0.447 0.88 0.999z">
            </path>
            <path
                d="M15.614 14.884c-0.253 0-0.457 0.232-0.457 0.519s0.205 0.519 0.457 0.519h0.135c0.253 0 0.457-0.232 0.457-0.519s-0.205-0.519-0.457-0.519h-0.135z">
            </path>
            <path
                d="M8.015 14.884c-0.253 0-0.457 0.232-0.457 0.519s0.205 0.519 0.457 0.519h0.135c0.253 0 0.457-0.232 0.457-0.519s-0.205-0.519-0.457-0.519h-0.135z">
            </path>
        </symbol>
        <symbol id="icon-face" viewBox="0 0 35 32">
            <path fill="none" stroke="#fff" style="stroke: var(--color1, #fff)" stroke-linejoin="round"
                stroke-linecap="round" stroke-miterlimit="4" stroke-width="17.4545"
                d="M25.425 26.057h-15.785c-1.174 0-2.125-0.955-2.125-2.133v-11.352l10.017-6.629 10.017 6.629v11.352c0 1.178-0.951 2.133-2.125 2.133z">
            </path>
            <path fill="#7837f3" style="fill: var(--color2, #7837f3)"
                d="M17.097 22.289c-1.437 0-2.776-0.714-3.583-1.909-0.212-0.313-0.13-0.74 0.182-0.952s0.737-0.131 0.949 0.183c0.552 0.819 1.469 1.307 2.452 1.307s1.9-0.489 2.452-1.307c0.212-0.313 0.636-0.396 0.949-0.183s0.394 0.639 0.182 0.952c-0.807 1.195-2.146 1.909-3.583 1.909z">
            </path>
            <path fill="#7837f3" style="fill: var(--color2, #7837f3)"
                d="M21.4 16.401c0.549 0 0.994-0.447 0.994-0.998s-0.445-0.999-0.994-0.999-0.994 0.447-0.994 0.999c0 0.551 0.445 0.998 0.994 0.998z">
            </path>
            <path fill="#7837f3" style="fill: var(--color2, #7837f3)"
                d="M13.802 15.403c0 0.551-0.445 0.998-0.994 0.998s-0.995-0.447-0.995-0.998c0-0.551 0.445-0.999 0.995-0.999s0.994 0.447 0.994 0.999z">
            </path>
            <path fill="#7837f3" style="fill: var(--color2, #7837f3)"
                d="M21.323 14.884c-0.286 0-0.517 0.232-0.517 0.519s0.232 0.519 0.517 0.519h0.153c0.286 0 0.517-0.232 0.517-0.519s-0.232-0.519-0.517-0.519h-0.153z">
            </path>
            <path fill="#7837f3" style="fill: var(--color2, #7837f3)"
                d="M12.731 14.884c-0.286 0-0.517 0.232-0.517 0.519s0.232 0.519 0.517 0.519h0.153c0.286 0 0.517-0.232 0.517-0.519s-0.232-0.519-0.517-0.519h-0.153z">
            </path>
        </symbol>
    </defs>
</svg>